<svg width="40" height="40" viewBox="0 0 40 40" fill="none" xmlns="http://www.w3.org/2000/svg">
<path d="M22.6337 26.2764C21.5839 26.2782 20.5441 26.0726 19.574 25.6714C18.6039 25.2703 17.7226 24.6813 16.9807 23.9385L16.6835 23.6412C13.927 20.8784 12.3789 17.135 12.3789 13.2323C12.3789 9.32956 13.927 5.58618 16.6835 2.82338C16.9218 2.58565 17.2447 2.45215 17.5813 2.45215C17.9179 2.45215 18.2408 2.58565 18.4791 2.82338C18.5129 2.85678 18.542 2.8946 18.5656 2.93581C20.8559 6.91743 22.764 8.91149 27.0732 11.8239C28.4841 12.7674 29.5532 14.1407 30.1219 15.7399C30.6906 17.3391 30.7285 19.079 30.2301 20.7015C29.7317 22.324 28.7235 23.7426 27.3551 24.7467C25.9867 25.7509 24.331 26.2871 22.6337 26.2758V26.2764ZM17.4478 22.8769L17.7451 23.1742C18.6482 24.0772 19.7837 24.7125 21.0258 25.0096C22.2678 25.3067 23.5679 25.2539 24.7819 24.8573C25.9958 24.4606 27.0762 23.7355 27.9032 22.7623C28.7302 21.7892 29.2716 20.606 29.4672 19.3439C29.6422 18.0695 29.4536 16.7716 28.923 15.5998C28.3924 14.428 27.5415 13.4299 26.4683 12.7207C22.0824 9.75581 20.0153 7.605 17.677 3.55851C17.6409 3.53758 17.5989 3.52914 17.5576 3.53452C17.5162 3.5399 17.4778 3.55878 17.4483 3.58824C14.8942 6.14817 13.4599 9.61668 13.4599 13.2328C13.4599 16.849 14.8942 20.3175 17.4483 22.8774L17.4478 22.8769Z" fill="#81868F"/>
<path d="M18.6005 30.3973C17.3016 30.3843 16.0257 30.054 14.8836 29.4352C13.7415 28.8164 12.7679 27.928 12.0475 26.8471C9.13403 22.5406 7.1416 20.6325 3.15835 18.3395C3.11724 18.3157 3.07944 18.2867 3.04592 18.253C2.80889 18.0153 2.67578 17.6933 2.67578 17.3576C2.67578 17.0219 2.80889 16.6999 3.04592 16.4622C5.67163 13.828 9.20073 12.2908 12.9178 12.1622C12.989 12.1589 13.0601 12.1698 13.1269 12.1943C13.1938 12.2188 13.2551 12.2565 13.3072 12.305C13.3593 12.3536 13.4012 12.412 13.4304 12.477C13.4596 12.5419 13.4756 12.6121 13.4773 12.6833C13.4798 12.7542 13.4683 12.825 13.4435 12.8915C13.4187 12.958 13.381 13.019 13.3326 13.071C13.2842 13.1229 13.2261 13.1648 13.1615 13.1943C13.0969 13.2238 13.0271 13.2402 12.9562 13.2427C9.51467 13.3616 6.24697 14.7841 3.81511 17.2222C3.78485 17.251 3.76519 17.2892 3.75931 17.3306C3.75342 17.372 3.76166 17.4142 3.78268 17.4503C7.83025 19.7914 9.98106 21.8584 12.9459 26.2422C13.495 27.0879 14.227 27.7995 15.0878 28.3245C15.9486 28.8496 16.9162 29.1748 17.9194 29.276C18.9226 29.3773 19.9358 29.2521 20.8841 28.9096C21.8325 28.5672 22.6919 28.0162 23.3989 27.2973C24.0568 26.64 24.5763 25.8573 24.9265 24.9957C24.9808 24.863 25.0856 24.7574 25.2179 24.702C25.3501 24.6466 25.4989 24.646 25.6316 24.7003C25.7643 24.7546 25.8699 24.8595 25.9253 24.9917C25.9807 25.1239 25.9813 25.2728 25.927 25.4055C25.5222 26.4008 24.9217 27.3048 24.1611 28.0638C22.9637 29.27 21.4093 30.058 19.7286 30.3109C19.3553 30.3684 18.9782 30.3974 18.6005 30.3973Z" fill="#81868F"/>
<path d="M9.79267 13.7092C9.685 13.7092 9.57978 13.677 9.4905 13.6168C9.40123 13.5566 9.33196 13.4712 9.29159 13.3713C8.75227 12.0417 8.47582 10.6202 8.47753 9.1854C8.47103 9.06927 8.47103 8.95287 8.47753 8.83675V8.77513C8.5782 5.99658 9.72892 3.35962 11.6975 1.39621C11.9001 1.19453 12.1744 1.0813 12.4602 1.0813C12.7461 1.0813 13.0203 1.19453 13.2229 1.39621C13.2568 1.43002 13.2861 1.46819 13.31 1.50972C14.0081 2.71193 14.824 3.84181 15.7456 4.88269C15.7973 4.93511 15.8376 4.99752 15.8643 5.06609C15.8909 5.13466 15.9033 5.20795 15.9007 5.28146C15.898 5.35498 15.8804 5.42719 15.8488 5.49365C15.8173 5.56012 15.7725 5.61945 15.7173 5.66801C15.662 5.71657 15.5974 5.75333 15.5274 5.77606C15.4575 5.79878 15.3836 5.80698 15.3103 5.80016C15.2371 5.79334 15.166 5.77163 15.1014 5.73638C15.0369 5.70112 14.9802 5.65306 14.9348 5.59513C13.999 4.53654 13.1664 3.39098 12.4483 2.17404C10.6838 3.94532 9.65324 6.31763 9.56294 8.81621L9.56023 8.88378C9.55445 8.97159 9.55355 9.05965 9.55753 9.14756C9.55338 10.4558 9.80342 11.7525 10.2937 12.9654C10.327 13.0474 10.3397 13.1364 10.3305 13.2245C10.3214 13.3125 10.2908 13.397 10.2413 13.4704C10.1919 13.5439 10.1252 13.6041 10.047 13.6457C9.96891 13.6873 9.88174 13.7091 9.79321 13.7092H9.79267Z" fill="#81868F"/>
<path d="M5.45741 15.6514C5.32532 15.6513 5.19784 15.6028 5.09904 15.5151C4.06162 14.5933 2.93394 13.7784 1.73309 13.0827C1.69359 13.0591 1.65726 13.0306 1.62498 12.9978C1.42193 12.7973 1.30674 12.5244 1.30471 12.239C1.30269 11.9536 1.41398 11.6791 1.61417 11.4757C3.57826 9.50633 6.21576 8.35456 8.99525 8.25244L9.02768 8.79298L9.01633 9.33352C6.5256 9.42841 4.16232 10.4594 2.3985 12.2206C3.6152 12.9363 4.75918 13.7691 5.81417 14.707C5.8962 14.7798 5.95416 14.8758 5.98033 14.9823C6.00651 15.0888 5.99967 15.2008 5.96073 15.3033C5.92178 15.4058 5.85257 15.4941 5.76229 15.5564C5.67201 15.6186 5.56492 15.6519 5.45525 15.6519L5.45741 15.6514Z" fill="#81868F"/>
<path d="M25.7132 29.9578C25.185 29.9587 24.6618 29.8553 24.1737 29.6534C23.6856 29.4516 23.2421 29.1553 22.8689 28.7815C22.7971 28.7129 22.7325 28.6372 22.6759 28.5556C22.6345 28.4966 22.6054 28.4298 22.5902 28.3594C22.5751 28.2889 22.5741 28.2161 22.5875 28.1453C22.6009 28.0745 22.6283 28.007 22.6681 27.9469C22.7079 27.8868 22.7594 27.8353 22.8194 27.7954C22.8794 27.7555 22.9468 27.728 23.0176 27.7145C23.0884 27.7011 23.1612 27.7019 23.2317 27.717C23.3022 27.732 23.369 27.7611 23.4281 27.8023C23.4872 27.8436 23.5374 27.8963 23.5759 27.9572C23.5934 27.9788 23.6126 27.9991 23.6332 28.0178C23.9065 28.2911 24.2309 28.5078 24.588 28.6557C24.9451 28.8037 25.3278 28.8798 25.7143 28.8798C26.1008 28.8798 26.4835 28.8037 26.8405 28.6557C27.1976 28.5078 27.5221 28.2911 27.7953 28.0178C28.0686 27.7445 28.2854 27.42 28.4333 27.063C28.5812 26.7059 28.6574 26.3232 28.6574 25.9367C28.6574 25.5502 28.5812 25.1675 28.4333 24.8104C28.2854 24.4533 28.0686 24.1289 27.7953 23.8556C27.7775 23.8378 27.7618 23.8205 27.7451 23.807C27.635 23.7171 27.564 23.5881 27.5469 23.4471C27.5297 23.306 27.5678 23.1638 27.6532 23.0502C27.7373 22.9383 27.8622 22.8642 28.0007 22.844C28.1391 22.8237 28.28 22.859 28.3926 22.9421C28.4525 22.9883 28.5089 23.0389 28.5613 23.0934C29.124 23.6559 29.5071 24.3727 29.6623 25.153C29.8174 25.9334 29.7376 26.7422 29.4329 27.4771C29.1282 28.2121 28.6124 28.8402 27.9506 29.2818C27.2889 29.7235 26.511 29.9589 25.7153 29.9583L25.7132 29.9578Z" fill="#81868F"/>
<path d="M38.1579 38.9188C38.0145 38.9188 37.8771 38.8618 37.7757 38.7605L27.7963 28.7815C27.6978 28.6796 27.6433 28.543 27.6446 28.4013C27.6458 28.2596 27.7026 28.124 27.8029 28.0238C27.9031 27.9236 28.0386 27.8667 28.1804 27.8655C28.3221 27.8643 28.4586 27.9188 28.5606 28.0172L38.5422 37.9961C38.6179 38.0719 38.6694 38.1684 38.6902 38.2734C38.711 38.3784 38.7001 38.4873 38.6589 38.5861C38.6177 38.685 38.5481 38.7694 38.4589 38.8286C38.3697 38.8878 38.265 38.9192 38.1579 38.9188Z" fill="#81868F"/>
<path d="M31.7253 32.4438C31.6179 32.4438 31.5128 32.4117 31.4237 32.3517C31.3345 32.2918 31.2653 32.2066 31.2248 32.107C30.8561 31.2393 30.6733 30.304 30.6884 29.3613C30.7034 28.4186 30.9158 27.4896 31.3119 26.634C31.7081 25.7785 32.2791 25.0155 32.9883 24.3942C33.6974 23.773 34.5289 23.3072 35.4291 23.027C35.559 22.9845 35.7003 22.9928 35.8244 23.0503C35.9484 23.1078 36.0461 23.2101 36.0977 23.3368C36.4665 24.2047 36.6492 25.1402 36.634 26.083C36.6189 27.0259 36.4062 27.9551 36.0098 28.8106C35.6134 29.6662 35.042 30.4292 34.3325 31.0503C33.623 31.6715 32.7912 32.137 31.8907 32.4168C31.8373 32.4343 31.7815 32.4434 31.7253 32.4438ZM35.274 24.2411C33.9569 24.7809 32.8925 25.7986 32.2943 27.0902C31.6961 28.3818 31.6083 29.8518 32.0485 31.2054C33.3659 30.6659 34.4306 29.6481 35.0289 28.3563C35.6272 27.0646 35.7149 25.5943 35.2745 24.2406L35.274 24.2411Z" fill="#81868F"/>
<path d="M27.1711 38.1502C26.2575 38.1473 25.3532 37.9668 24.5084 37.6189C24.3818 37.5673 24.2794 37.4696 24.2219 37.3455C24.1645 37.2214 24.1562 37.0802 24.1987 36.9502C24.4788 36.0503 24.9444 35.2191 25.5655 34.5102C26.1866 33.8012 26.9493 33.2303 27.8045 32.8342C28.6598 32.4381 29.5885 32.2256 30.5309 32.2104C31.4733 32.1951 32.4084 32.3776 33.276 32.7459C33.4026 32.7975 33.505 32.8952 33.5624 33.0193C33.6199 33.1434 33.6282 33.2846 33.5857 33.4146C33.3029 34.3131 32.8363 35.143 32.2155 35.8516C31.5947 36.5601 30.8333 37.1318 29.9797 37.5302C29.0998 37.9389 28.1413 38.1505 27.1711 38.1502ZM25.4079 36.7951C26.7621 37.2359 28.233 37.1482 29.5252 36.5496C30.8175 35.9509 31.8355 34.8856 32.3749 33.5675C31.0206 33.1266 29.5497 33.2142 28.2574 33.8129C26.9651 34.4115 25.9471 35.4769 25.4079 36.7951Z" fill="#81868F"/>
</svg>
